<?xml version="1.0" encoding="UTF-8" standalone="no"?>
<svg
   xmlns:dc="http://purl.org/dc/elements/1.1/"
   xmlns:cc="http://creativecommons.org/ns#"
   xmlns:rdf="http://www.w3.org/1999/02/22-rdf-syntax-ns#"
   xmlns:svg="http://www.w3.org/2000/svg"
   xmlns="http://www.w3.org/2000/svg"
   xmlns:sodipodi="http://sodipodi.sourceforge.net/DTD/sodipodi-0.dtd"
   xmlns:inkscape="http://www.inkscape.org/namespaces/inkscape"
   enable-background="new 0 0 55 55"
   height="55px"
   id="svg13"
   inkscape:version="0.92.2 5c3e80d, 2017-08-06"
   sodipodi:docname="new-game-icon.svg"
   style=""
   version="1.1"
   viewBox="0 0 55 55"
   width="55px"
   x="0px"
   xml:space="preserve"
   y="0px"><metadata
     id="metadata19"
     style=""><rdf:RDF
       style=""><cc:Work
         rdf:about=""
         style=""><dc:format
           style="">image/svg+xml</dc:format><dc:type
           rdf:resource="http://purl.org/dc/dcmitype/StillImage"
           style="" /></cc:Work></rdf:RDF></metadata><defs
     id="defs17"
     style="" /><sodipodi:namedview
     bordercolor="#666666"
     borderopacity="1"
     gridtolerance="10"
     guidetolerance="10"
     id="namedview15"
     inkscape:current-layer="svg13"
     inkscape:cx="22.838983"
     inkscape:cy="27.5"
     inkscape:pageopacity="0"
     inkscape:pageshadow="2"
     inkscape:window-height="788"
     inkscape:window-maximized="0"
     inkscape:window-width="1440"
     inkscape:window-x="0"
     inkscape:window-y="0"
     inkscape:zoom="8.5818182"
     objecttolerance="10"
     pagecolor="#ffffff"
     showgrid="false"
     style="" /><g
     id="g4600"
     style="fill:#ffffff;fill-opacity:1;stroke:#ffffff;stroke-opacity:1"><rect
       height="8"
       id="rect4517"
       style="fill:#ffffff;fill-opacity:1;stroke:#ffffff;stroke-opacity:1"
       width="8"
       x="14"
       y="3.5000005" /><rect
       height="8"
       id="rect4519"
       style="fill:#ffffff;fill-opacity:1;stroke:#ffffff;stroke-opacity:1"
       width="8"
       x="24"
       y="3.5000005" /><rect
       height="8"
       id="rect4521"
       style="fill:#ffffff;fill-opacity:1;stroke:#ffffff;stroke-opacity:1"
       width="8"
       x="34"
       y="3.5000005" /><rect
       height="8"
       id="rect4523"
       style="fill:#ffffff;fill-opacity:1;stroke:#ffffff;stroke-opacity:1"
       width="8"
       x="44"
       y="3.5000005" /><rect
       height="8"
       id="rect4525"
       style="fill:#ffffff;fill-opacity:1;stroke:#ffffff;stroke-opacity:1"
       width="8"
       x="4"
       y="13.5" /><rect
       height="8"
       id="rect4529"
       style="fill:#ffffff;fill-opacity:1;stroke:#ffffff;stroke-opacity:1"
       width="8"
       x="24"
       y="13.5" /><rect
       height="8"
       id="rect4531"
       style="fill:#ffffff;fill-opacity:1;stroke:#ffffff;stroke-opacity:1"
       width="8"
       x="34"
       y="13.5" /><rect
       height="8"
       id="rect4533"
       style="fill:#ffffff;fill-opacity:1;stroke:#ffffff;stroke-opacity:1"
       width="8"
       x="44"
       y="13.5" /><rect
       height="8"
       id="rect4535"
       style="fill:#ffffff;fill-opacity:1;stroke:#ffffff;stroke-opacity:1"
       width="8"
       x="4"
       y="23.5" /><rect
       height="8"
       id="rect4537"
       style="fill:#ffffff;fill-opacity:1;stroke:#ffffff;stroke-opacity:1"
       width="8"
       x="14"
       y="23.5" /><rect
       height="8"
       id="rect4541"
       style="fill:#ffffff;fill-opacity:1;stroke:#ffffff;stroke-opacity:1"
       width="8"
       x="34"
       y="23.5" /><rect
       height="8"
       id="rect4543"
       style="fill:#ffffff;fill-opacity:1;stroke:#ffffff;stroke-opacity:1"
       width="8"
       x="44"
       y="23.5" /><rect
       height="8"
       id="rect4545"
       style="fill:#ffffff;fill-opacity:1;stroke:#ffffff;stroke-opacity:1"
       width="8"
       x="4"
       y="33.5" /><rect
       height="8"
       id="rect4547"
       style="fill:#ffffff;fill-opacity:1;stroke:#ffffff;stroke-opacity:1"
       width="8"
       x="14"
       y="33.5" /><rect
       height="8"
       id="rect4549"
       style="fill:#ffffff;fill-opacity:1;stroke:#ffffff;stroke-opacity:1"
       width="8"
       x="24"
       y="33.5" /><rect
       height="8"
       id="rect4553"
       style="fill:#ffffff;fill-opacity:1;stroke:#ffffff;stroke-opacity:1"
       width="8"
       x="44"
       y="33.5" /><rect
       height="8"
       id="rect4555"
       style="fill:#ffffff;fill-opacity:1;stroke:#ffffff;stroke-opacity:1"
       width="8"
       x="4"
       y="43.5" /><rect
       height="8"
       id="rect4557"
       style="fill:#ffffff;fill-opacity:1;stroke:#ffffff;stroke-opacity:1"
       width="8"
       x="14"
       y="43.5" /><rect
       height="8"
       id="rect4559"
       style="fill:#ffffff;fill-opacity:1;stroke:#ffffff;stroke-opacity:1"
       width="8"
       x="24"
       y="43.5" /><rect
       height="8"
       id="rect4561"
       style="fill:#ffffff;fill-opacity:1;stroke:#ffffff;stroke-opacity:1"
       width="8"
       x="34"
       y="43.5" /><circle
       cx="8"
       cy="7.5"
       id="path4565"
       r="4"
       style="fill:#ffffff;fill-opacity:1;stroke:#ffffff;stroke-opacity:1" /><circle
       cx="18"
       cy="17.5"
       id="circle4567"
       r="4"
       style="fill:#ffffff;fill-opacity:1;stroke:#ffffff;stroke-opacity:1" /><circle
       cx="28"
       cy="27.5"
       id="circle4569"
       r="4"
       style="fill:#ffffff;fill-opacity:1;stroke:#ffffff;stroke-opacity:1" /><circle
       cx="38"
       cy="37.5"
       id="circle4571"
       r="4"
       style="fill:#ffffff;fill-opacity:1;stroke:#ffffff;stroke-opacity:1" /><circle
       cx="48"
       cy="47.5"
       id="circle4573"
       r="4"
       style="fill:#ffffff;fill-opacity:1;stroke:#ffffff;stroke-opacity:1" /></g><g
     id="g898"
     transform="translate(-0.7514801,-2.3354249)"><text
       id="text2987"
       y="49.891453"
       x="9.5579262"
       style="font-style:normal;font-variant:normal;font-weight:normal;font-stretch:normal;line-height:0%;font-family:'Segoe UI';-inkscape-font-specification:'Segoe UI';letter-spacing:0px;word-spacing:0px;fill:#000000;fill-opacity:1;stroke:none"
       xml:space="preserve"><tspan
         style="font-size:12px;line-height:1.25"
         y="49.891453"
         x="9.5579262"
         id="tspan2989"
         sodipodi:role="line"> </tspan></text>
<rect
       style="fill:#ffffff"
       y="9.2582016"
       x="35.638832"
       height="39.079792"
       width="3.4719157"
       id="rect3004-4-8" /><path
       d="m 39.23406,29.19842 c -1.120579,0 -2.040262,0.919683 -2.040262,2.040262 v 4.678998 l -3.318825,-3.318825 c -0.793214,-0.791525 -2.064841,-0.793209 -2.856365,0 -0.791524,0.793215 -0.793181,2.092046 0,2.883568 l 3.346027,3.318825 h -4.733402 c -1.120579,0 -2.040263,0.919683 -2.040263,2.040263 0,1.120577 0.919684,2.013056 2.040263,2.013056 h 4.7062 l -3.318825,3.318824 c -0.791523,0.793212 -0.793181,2.092045 0,2.883568 0.793214,0.791522 2.092046,0.766009 2.883567,-0.02721 l 3.291623,-3.318822 v 4.733405 c 0,1.120578 0.919683,2.013057 2.040262,2.013057 1.120579,0 2.013058,-0.892479 2.013058,-2.013057 v -4.760608 l 3.37323,3.346025 c 0.793212,0.791524 2.064842,0.793214 2.856362,0 0.791524,-0.793211 0.793218,-2.064841 0,-2.856362 l -3.346025,-3.318824 h 4.706201 c 1.120579,0 2.013058,-0.89248 2.013058,-2.013058 0,-1.12058 -0.892479,-2.040264 -2.013058,-2.040264 h -4.733403 l 3.346025,-3.37323 c 0.791523,-0.793212 0.793216,-2.037637 0,-2.829162 -0.793213,-0.791521 -2.064842,-0.82042 -2.856364,-0.0272 l -3.346026,3.37323 V 31.23868 c 0,-1.120579 -0.892479,-2.040264 -2.013058,-2.040264 z"
       id="rect3894"
       style="fill:#ffffff;fill-opacity:1;stroke:#282828;stroke-width:1.74102712;stroke-linecap:round;stroke-linejoin:round;stroke-miterlimit:4;stroke-dasharray:none;stroke-opacity:1"
       inkscape:connector-curvature="0" /></g></svg>